<svg xmlns="http://www.w3.org/2000/svg" viewBox="0 0 48 52">
  <!-- Arch tile: deep espresso; cream body, bronze accents (nude palette) -->
  <path d="M6 50 V24 C6 10.7 14.1 2.5 24 2.5 C33.9 2.5 42 10.7 42 24 V50 Z" fill="#332316"/>
  <path d="M6 50 V24 C6 10.7 14.1 2.5 24 2.5 C33.9 2.5 42 10.7 42 24 V50 Z" fill="none" stroke="#B07C39" stroke-width="2"/>
  <circle cx="36.5" cy="12.5" r="3" fill="#C08E42"/>
  <path d="M15 28 L24 19.5 L33 28 Z" fill="#C08E42"/>
  <rect x="16.5" y="28" width="15" height="11.5" rx="1.5" fill="#F7EFE2"/>
  <path d="M21.5 39.5 V33.6 A2.5 2.5 0 0 1 26.5 33.6 V39.5 Z" fill="#96682B"/>
  <rect x="9" y="43" width="30" height="2.2" rx="1.1" fill="#C08E42" opacity="0.55"/>
</svg>
